<?xml version="1.0" encoding="UTF-8" standalone="no"?>
<!DOCTYPE svg PUBLIC "-//W3C//DTD SVG 1.1//EN"
 "http://www.w3.org/Graphics/SVG/1.1/DTD/svg11.dtd">
<!-- Generated by graphviz version 2.40.1 (20161225.0304)
 -->
<!-- Title: Tree Pages: 1 -->
<svg width="1266pt" height="528pt"
 viewBox="0.00 0.00 1266.34 528.00" xmlns="http://www.w3.org/2000/svg" xmlns:xlink="http://www.w3.org/1999/xlink">
<g id="graph0" class="graph" transform="scale(1 1) rotate(0) translate(4 524)">
<title>Tree</title>
<polygon fill="#ffffff" stroke="transparent" points="-4,4 -4,-524 1262.3408,-524 1262.3408,4 -4,4"/>
<!-- 0 -->
<g id="node1" class="node">
<title>0</title>
<path fill="#fef8f4" stroke="#000000" d="M635.9422,-520C635.9422,-520 516.3987,-520 516.3987,-520 510.3987,-520 504.3987,-514 504.3987,-508 504.3987,-508 504.3987,-454 504.3987,-454 504.3987,-448 510.3987,-442 516.3987,-442 516.3987,-442 635.9422,-442 635.9422,-442 641.9422,-442 647.9422,-448 647.9422,-454 647.9422,-454 647.9422,-508 647.9422,-508 647.9422,-514 641.9422,-520 635.9422,-520"/>
<text text-anchor="middle" x="576.1704" y="-504.8" font-family="Helvetica,sans-Serif" font-size="14.00" fill="#000000">gill&#45;color &lt;= 3.5</text>
<text text-anchor="middle" x="576.1704" y="-490.8" font-family="Helvetica,sans-Serif" font-size="14.00" fill="#000000">gini = 0.5</text>
<text text-anchor="middle" x="576.1704" y="-476.8" font-family="Helvetica,sans-Serif" font-size="14.00" fill="#000000">samples = 6499</text>
<text text-anchor="middle" x="576.1704" y="-462.8" font-family="Helvetica,sans-Serif" font-size="14.00" fill="#000000">value = [3341, 3158]</text>
<text text-anchor="middle" x="576.1704" y="-448.8" font-family="Helvetica,sans-Serif" font-size="14.00" fill="#000000">class = p</text>
</g>
<!-- 1 -->
<g id="node2" class="node">
<title>1</title>
<path fill="#5fb0ea" stroke="#000000" d="M484.1566,-406C484.1566,-406 372.1842,-406 372.1842,-406 366.1842,-406 360.1842,-400 360.1842,-394 360.1842,-394 360.1842,-340 360.1842,-340 360.1842,-334 366.1842,-328 372.1842,-328 372.1842,-328 484.1566,-328 484.1566,-328 490.1566,-328 496.1566,-334 496.1566,-340 496.1566,-340 496.1566,-394 496.1566,-394 496.1566,-400 490.1566,-406 484.1566,-406"/>
<text text-anchor="middle" x="428.1704" y="-390.8" font-family="Helvetica,sans-Serif" font-size="14.00" fill="#000000">population &lt;= 3.5</text>
<text text-anchor="middle" x="428.1704" y="-376.8" font-family="Helvetica,sans-Serif" font-size="14.00" fill="#000000">gini = 0.27</text>
<text text-anchor="middle" x="428.1704" y="-362.8" font-family="Helvetica,sans-Serif" font-size="14.00" fill="#000000">samples = 2666</text>
<text text-anchor="middle" x="428.1704" y="-348.8" font-family="Helvetica,sans-Serif" font-size="14.00" fill="#000000">value = [428, 2238]</text>
<text text-anchor="middle" x="428.1704" y="-334.8" font-family="Helvetica,sans-Serif" font-size="14.00" fill="#000000">class = e</text>
</g>
<!-- 0&#45;&gt;1 -->
<g id="edge1" class="edge">
<title>0&#45;&gt;1</title>
<path fill="none" stroke="#000000" d="M525.2372,-441.7677C512.9595,-432.3105 499.7404,-422.1282 487.1298,-412.4147"/>
<polygon fill="#000000" stroke="#000000" points="489.0048,-409.441 478.9467,-406.1115 484.7332,-414.9866 489.0048,-409.441"/>
<text text-anchor="middle" x="482.164" y="-426.7036" font-family="Helvetica,sans-Serif" font-size="14.00" fill="#000000">True</text>
</g>
<!-- 12 -->
<g id="node13" class="node">
<title>12</title>
<path fill="#eda978" stroke="#000000" d="M789.6877,-406C789.6877,-406 652.6531,-406 652.6531,-406 646.6531,-406 640.6531,-400 640.6531,-394 640.6531,-394 640.6531,-340 640.6531,-340 640.6531,-334 646.6531,-328 652.6531,-328 652.6531,-328 789.6877,-328 789.6877,-328 795.6877,-328 801.6877,-334 801.6877,-340 801.6877,-340 801.6877,-394 801.6877,-394 801.6877,-400 795.6877,-406 789.6877,-406"/>
<text text-anchor="middle" x="721.1704" y="-390.8" font-family="Helvetica,sans-Serif" font-size="14.00" fill="#000000">spore&#45;print&#45;color &lt;= 1.5</text>
<text text-anchor="middle" x="721.1704" y="-376.8" font-family="Helvetica,sans-Serif" font-size="14.00" fill="#000000">gini = 0.36</text>
<text text-anchor="middle" x="721.1704" y="-362.8" font-family="Helvetica,sans-Serif" font-size="14.00" fill="#000000">samples = 3833</text>
<text text-anchor="middle" x="721.1704" y="-348.8" font-family="Helvetica,sans-Serif" font-size="14.00" fill="#000000">value = [2913, 920]</text>
<text text-anchor="middle" x="721.1704" y="-334.8" font-family="Helvetica,sans-Serif" font-size="14.00" fill="#000000">class = p</text>
</g>
<!-- 0&#45;&gt;12 -->
<g id="edge12" class="edge">
<title>0&#45;&gt;12</title>
<path fill="none" stroke="#000000" d="M626.0712,-441.7677C638.0329,-432.3633 650.9065,-422.242 663.199,-412.5775"/>
<polygon fill="#000000" stroke="#000000" points="665.4796,-415.2368 671.1777,-406.3046 661.1531,-409.7338 665.4796,-415.2368"/>
<text text-anchor="middle" x="668.2066" y="-426.9275" font-family="Helvetica,sans-Serif" font-size="14.00" fill="#000000">False</text>
</g>
<!-- 2 -->
<g id="node3" class="node">
<title>2</title>
<path fill="#e99558" stroke="#000000" d="M250.6877,-292C250.6877,-292 113.6531,-292 113.6531,-292 107.6531,-292 101.6531,-286 101.6531,-280 101.6531,-280 101.6531,-226 101.6531,-226 101.6531,-220 107.6531,-214 113.6531,-214 113.6531,-214 250.6877,-214 250.6877,-214 256.6877,-214 262.6877,-220 262.6877,-226 262.6877,-226 262.6877,-280 262.6877,-280 262.6877,-286 256.6877,-292 250.6877,-292"/>
<text text-anchor="middle" x="182.1704" y="-276.8" font-family="Helvetica,sans-Serif" font-size="14.00" fill="#000000">spore&#45;print&#45;color &lt;= 1.5</text>
<text text-anchor="middle" x="182.1704" y="-262.8" font-family="Helvetica,sans-Serif" font-size="14.00" fill="#000000">gini = 0.23</text>
<text text-anchor="middle" x="182.1704" y="-248.8" font-family="Helvetica,sans-Serif" font-size="14.00" fill="#000000">samples = 461</text>
<text text-anchor="middle" x="182.1704" y="-234.8" font-family="Helvetica,sans-Serif" font-size="14.00" fill="#000000">value = [399, 62]</text>
<text text-anchor="middle" x="182.1704" y="-220.8" font-family="Helvetica,sans-Serif" font-size="14.00" fill="#000000">class = p</text>
</g>
<!-- 1&#45;&gt;2 -->
<g id="edge2" class="edge">
<title>1&#45;&gt;2</title>
<path fill="none" stroke="#000000" d="M360.2986,-335.5472C333.0932,-322.9398 301.3509,-308.23 272.2598,-294.7488"/>
<polygon fill="#000000" stroke="#000000" points="273.4617,-291.4482 262.917,-290.4191 270.5184,-297.7994 273.4617,-291.4482"/>
</g>
<!-- 7 -->
<g id="node8" class="node">
<title>7</title>
<path fill="#3c9ee5" stroke="#000000" d="M479.87,-292C479.87,-292 376.4708,-292 376.4708,-292 370.4708,-292 364.4708,-286 364.4708,-280 364.4708,-280 364.4708,-226 364.4708,-226 364.4708,-220 370.4708,-214 376.4708,-214 376.4708,-214 479.87,-214 479.87,-214 485.87,-214 491.87,-220 491.87,-226 491.87,-226 491.87,-280 491.87,-280 491.87,-286 485.87,-292 479.87,-292"/>
<text text-anchor="middle" x="428.1704" y="-276.8" font-family="Helvetica,sans-Serif" font-size="14.00" fill="#000000">stalk&#45;root &lt;= 2.0</text>
<text text-anchor="middle" x="428.1704" y="-262.8" font-family="Helvetica,sans-Serif" font-size="14.00" fill="#000000">gini = 0.03</text>
<text text-anchor="middle" x="428.1704" y="-248.8" font-family="Helvetica,sans-Serif" font-size="14.00" fill="#000000">samples = 2205</text>
<text text-anchor="middle" x="428.1704" y="-234.8" font-family="Helvetica,sans-Serif" font-size="14.00" fill="#000000">value = [29, 2176]</text>
<text text-anchor="middle" x="428.1704" y="-220.8" font-family="Helvetica,sans-Serif" font-size="14.00" fill="#000000">class = e</text>
</g>
<!-- 1&#45;&gt;7 -->
<g id="edge7" class="edge">
<title>1&#45;&gt;7</title>
<path fill="none" stroke="#000000" d="M428.1704,-327.7677C428.1704,-319.6172 428.1704,-310.9283 428.1704,-302.4649"/>
<polygon fill="#000000" stroke="#000000" points="431.6705,-302.3046 428.1704,-292.3046 424.6705,-302.3047 431.6705,-302.3046"/>
</g>
<!-- 3 -->
<g id="node4" class="node">
<title>3</title>
<path fill="#399de5" stroke="#000000" d="M92.5118,-171C92.5118,-171 11.829,-171 11.829,-171 5.829,-171 -.171,-165 -.171,-159 -.171,-159 -.171,-119 -.171,-119 -.171,-113 5.829,-107 11.829,-107 11.829,-107 92.5118,-107 92.5118,-107 98.5118,-107 104.5118,-113 104.5118,-119 104.5118,-119 104.5118,-159 104.5118,-159 104.5118,-165 98.5118,-171 92.5118,-171"/>
<text text-anchor="middle" x="52.1704" y="-155.8" font-family="Helvetica,sans-Serif" font-size="14.00" fill="#000000">gini = 0.0</text>
<text text-anchor="middle" x="52.1704" y="-141.8" font-family="Helvetica,sans-Serif" font-size="14.00" fill="#000000">samples = 40</text>
<text text-anchor="middle" x="52.1704" y="-127.8" font-family="Helvetica,sans-Serif" font-size="14.00" fill="#000000">value = [0, 40]</text>
<text text-anchor="middle" x="52.1704" y="-113.8" font-family="Helvetica,sans-Serif" font-size="14.00" fill="#000000">class = e</text>
</g>
<!-- 2&#45;&gt;3 -->
<g id="edge3" class="edge">
<title>2&#45;&gt;3</title>
<path fill="none" stroke="#000000" d="M137.4318,-213.7677C124.1702,-202.1383 109.6583,-189.4125 96.4274,-177.81"/>
<polygon fill="#000000" stroke="#000000" points="98.6307,-175.0869 88.8044,-171.1252 94.0154,-180.35 98.6307,-175.0869"/>
</g>
<!-- 4 -->
<g id="node5" class="node">
<title>4</title>
<path fill="#e68844" stroke="#000000" d="M230.0835,-178C230.0835,-178 134.2573,-178 134.2573,-178 128.2573,-178 122.2573,-172 122.2573,-166 122.2573,-166 122.2573,-112 122.2573,-112 122.2573,-106 128.2573,-100 134.2573,-100 134.2573,-100 230.0835,-100 230.0835,-100 236.0835,-100 242.0835,-106 242.0835,-112 242.0835,-112 242.0835,-166 242.0835,-166 242.0835,-172 236.0835,-178 230.0835,-178"/>
<text text-anchor="middle" x="182.1704" y="-162.8" font-family="Helvetica,sans-Serif" font-size="14.00" fill="#000000">habitat &lt;= 0.5</text>
<text text-anchor="middle" x="182.1704" y="-148.8" font-family="Helvetica,sans-Serif" font-size="14.00" fill="#000000">gini = 0.1</text>
<text text-anchor="middle" x="182.1704" y="-134.8" font-family="Helvetica,sans-Serif" font-size="14.00" fill="#000000">samples = 421</text>
<text text-anchor="middle" x="182.1704" y="-120.8" font-family="Helvetica,sans-Serif" font-size="14.00" fill="#000000">value = [399, 22]</text>
<text text-anchor="middle" x="182.1704" y="-106.8" font-family="Helvetica,sans-Serif" font-size="14.00" fill="#000000">class = p</text>
</g>
<!-- 2&#45;&gt;4 -->
<g id="edge4" class="edge">
<title>2&#45;&gt;4</title>
<path fill="none" stroke="#000000" d="M182.1704,-213.7677C182.1704,-205.6172 182.1704,-196.9283 182.1704,-188.4649"/>
<polygon fill="#000000" stroke="#000000" points="185.6705,-188.3046 182.1704,-178.3046 178.6705,-188.3047 185.6705,-188.3046"/>
</g>
<!-- 5 -->
<g id="node6" class="node">
<title>5</title>
<path fill="#399de5" stroke="#000000" d="M109.5118,-64C109.5118,-64 28.829,-64 28.829,-64 22.829,-64 16.829,-58 16.829,-52 16.829,-52 16.829,-12 16.829,-12 16.829,-6 22.829,0 28.829,0 28.829,0 109.5118,0 109.5118,0 115.5118,0 121.5118,-6 121.5118,-12 121.5118,-12 121.5118,-52 121.5118,-52 121.5118,-58 115.5118,-64 109.5118,-64"/>
<text text-anchor="middle" x="69.1704" y="-48.8" font-family="Helvetica,sans-Serif" font-size="14.00" fill="#000000">gini = 0.0</text>
<text text-anchor="middle" x="69.1704" y="-34.8" font-family="Helvetica,sans-Serif" font-size="14.00" fill="#000000">samples = 22</text>
<text text-anchor="middle" x="69.1704" y="-20.8" font-family="Helvetica,sans-Serif" font-size="14.00" fill="#000000">value = [0, 22]</text>
<text text-anchor="middle" x="69.1704" y="-6.8" font-family="Helvetica,sans-Serif" font-size="14.00" fill="#000000">class = e</text>
</g>
<!-- 4&#45;&gt;5 -->
<g id="edge5" class="edge">
<title>4&#45;&gt;5</title>
<path fill="none" stroke="#000000" d="M140.735,-99.7647C130.897,-90.4491 120.4016,-80.5109 110.5654,-71.197"/>
<polygon fill="#000000" stroke="#000000" points="112.8616,-68.5511 103.1938,-64.2169 108.0486,-73.634 112.8616,-68.5511"/>
</g>
<!-- 6 -->
<g id="node7" class="node">
<title>6</title>
<path fill="#e58139" stroke="#000000" d="M239.2974,-64C239.2974,-64 151.0434,-64 151.0434,-64 145.0434,-64 139.0434,-58 139.0434,-52 139.0434,-52 139.0434,-12 139.0434,-12 139.0434,-6 145.0434,0 151.0434,0 151.0434,0 239.2974,0 239.2974,0 245.2974,0 251.2974,-6 251.2974,-12 251.2974,-12 251.2974,-52 251.2974,-52 251.2974,-58 245.2974,-64 239.2974,-64"/>
<text text-anchor="middle" x="195.1704" y="-48.8" font-family="Helvetica,sans-Serif" font-size="14.00" fill="#000000">gini = 0.0</text>
<text text-anchor="middle" x="195.1704" y="-34.8" font-family="Helvetica,sans-Serif" font-size="14.00" fill="#000000">samples = 399</text>
<text text-anchor="middle" x="195.1704" y="-20.8" font-family="Helvetica,sans-Serif" font-size="14.00" fill="#000000">value = [399, 0]</text>
<text text-anchor="middle" x="195.1704" y="-6.8" font-family="Helvetica,sans-Serif" font-size="14.00" fill="#000000">class = p</text>
</g>
<!-- 4&#45;&gt;6 -->
<g id="edge6" class="edge">
<title>4&#45;&gt;6</title>
<path fill="none" stroke="#000000" d="M186.9373,-99.7647C187.9471,-91.4537 189.017,-82.6472 190.0396,-74.2305"/>
<polygon fill="#000000" stroke="#000000" points="193.5245,-74.566 191.2562,-64.2169 186.5756,-73.7217 193.5245,-74.566"/>
</g>
<!-- 8 -->
<g id="node9" class="node">
<title>8</title>
<path fill="#3a9de5" stroke="#000000" d="M456.3697,-178C456.3697,-178 271.9711,-178 271.9711,-178 265.9711,-178 259.9711,-172 259.9711,-166 259.9711,-166 259.9711,-112 259.9711,-112 259.9711,-106 265.9711,-100 271.9711,-100 271.9711,-100 456.3697,-100 456.3697,-100 462.3697,-100 468.3697,-106 468.3697,-112 468.3697,-112 468.3697,-166 468.3697,-166 468.3697,-172 462.3697,-178 456.3697,-178"/>
<text text-anchor="middle" x="364.1704" y="-162.8" font-family="Helvetica,sans-Serif" font-size="14.00" fill="#000000">stalk&#45;surface&#45;below&#45;ring &lt;= 0.5</text>
<text text-anchor="middle" x="364.1704" y="-148.8" font-family="Helvetica,sans-Serif" font-size="14.00" fill="#000000">gini = 0.01</text>
<text text-anchor="middle" x="364.1704" y="-134.8" font-family="Helvetica,sans-Serif" font-size="14.00" fill="#000000">samples = 2186</text>
<text text-anchor="middle" x="364.1704" y="-120.8" font-family="Helvetica,sans-Serif" font-size="14.00" fill="#000000">value = [10, 2176]</text>
<text text-anchor="middle" x="364.1704" y="-106.8" font-family="Helvetica,sans-Serif" font-size="14.00" fill="#000000">class = e</text>
</g>
<!-- 7&#45;&gt;8 -->
<g id="edge8" class="edge">
<title>7&#45;&gt;8</title>
<path fill="none" stroke="#000000" d="M406.1452,-213.7677C401.3181,-205.1694 396.1546,-195.9718 391.1582,-187.072"/>
<polygon fill="#000000" stroke="#000000" points="394.1835,-185.3111 386.2362,-178.3046 388.0796,-188.7379 394.1835,-185.3111"/>
</g>
<!-- 11 -->
<g id="node12" class="node">
<title>11</title>
<path fill="#e58139" stroke="#000000" d="M578.5118,-171C578.5118,-171 497.829,-171 497.829,-171 491.829,-171 485.829,-165 485.829,-159 485.829,-159 485.829,-119 485.829,-119 485.829,-113 491.829,-107 497.829,-107 497.829,-107 578.5118,-107 578.5118,-107 584.5118,-107 590.5118,-113 590.5118,-119 590.5118,-119 590.5118,-159 590.5118,-159 590.5118,-165 584.5118,-171 578.5118,-171"/>
<text text-anchor="middle" x="538.1704" y="-155.8" font-family="Helvetica,sans-Serif" font-size="14.00" fill="#000000">gini = 0.0</text>
<text text-anchor="middle" x="538.1704" y="-141.8" font-family="Helvetica,sans-Serif" font-size="14.00" fill="#000000">samples = 19</text>
<text text-anchor="middle" x="538.1704" y="-127.8" font-family="Helvetica,sans-Serif" font-size="14.00" fill="#000000">value = [19, 0]</text>
<text text-anchor="middle" x="538.1704" y="-113.8" font-family="Helvetica,sans-Serif" font-size="14.00" fill="#000000">class = p</text>
</g>
<!-- 7&#45;&gt;11 -->
<g id="edge11" class="edge">
<title>7&#45;&gt;11</title>
<path fill="none" stroke="#000000" d="M466.0262,-213.7677C477.0378,-202.3556 489.0681,-189.8878 500.0933,-178.4618"/>
<polygon fill="#000000" stroke="#000000" points="502.7474,-180.7517 507.1724,-171.1252 497.71,-175.8911 502.7474,-180.7517"/>
</g>
<!-- 9 -->
<g id="node10" class="node">
<title>9</title>
<path fill="#add7f4" stroke="#000000" d="M395.2974,-64C395.2974,-64 307.0434,-64 307.0434,-64 301.0434,-64 295.0434,-58 295.0434,-52 295.0434,-52 295.0434,-12 295.0434,-12 295.0434,-6 301.0434,0 307.0434,0 307.0434,0 395.2974,0 395.2974,0 401.2974,0 407.2974,-6 407.2974,-12 407.2974,-12 407.2974,-52 407.2974,-52 407.2974,-58 401.2974,-64 395.2974,-64"/>
<text text-anchor="middle" x="351.1704" y="-48.8" font-family="Helvetica,sans-Serif" font-size="14.00" fill="#000000">gini = 0.47</text>
<text text-anchor="middle" x="351.1704" y="-34.8" font-family="Helvetica,sans-Serif" font-size="14.00" fill="#000000">samples = 27</text>
<text text-anchor="middle" x="351.1704" y="-20.8" font-family="Helvetica,sans-Serif" font-size="14.00" fill="#000000">value = [10, 17]</text>
<text text-anchor="middle" x="351.1704" y="-6.8" font-family="Helvetica,sans-Serif" font-size="14.00" fill="#000000">class = e</text>
</g>
<!-- 8&#45;&gt;9 -->
<g id="edge9" class="edge">
<title>8&#45;&gt;9</title>
<path fill="none" stroke="#000000" d="M359.4035,-99.7647C358.3938,-91.4537 357.3238,-82.6472 356.3012,-74.2305"/>
<polygon fill="#000000" stroke="#000000" points="359.7652,-73.7217 355.0846,-64.2169 352.8163,-74.566 359.7652,-73.7217"/>
</g>
<!-- 10 -->
<g id="node11" class="node">
<title>10</title>
<path fill="#399de5" stroke="#000000" d="M533.0835,-64C533.0835,-64 437.2573,-64 437.2573,-64 431.2573,-64 425.2573,-58 425.2573,-52 425.2573,-52 425.2573,-12 425.2573,-12 425.2573,-6 431.2573,0 437.2573,0 437.2573,0 533.0835,0 533.0835,0 539.0835,0 545.0835,-6 545.0835,-12 545.0835,-12 545.0835,-52 545.0835,-52 545.0835,-58 539.0835,-64 533.0835,-64"/>
<text text-anchor="middle" x="485.1704" y="-48.8" font-family="Helvetica,sans-Serif" font-size="14.00" fill="#000000">gini = 0.0</text>
<text text-anchor="middle" x="485.1704" y="-34.8" font-family="Helvetica,sans-Serif" font-size="14.00" fill="#000000">samples = 2159</text>
<text text-anchor="middle" x="485.1704" y="-20.8" font-family="Helvetica,sans-Serif" font-size="14.00" fill="#000000">value = [0, 2159]</text>
<text text-anchor="middle" x="485.1704" y="-6.8" font-family="Helvetica,sans-Serif" font-size="14.00" fill="#000000">class = e</text>
</g>
<!-- 8&#45;&gt;10 -->
<g id="edge10" class="edge">
<title>8&#45;&gt;10</title>
<path fill="none" stroke="#000000" d="M408.5393,-99.7647C419.1771,-90.3577 430.5327,-80.316 441.1544,-70.9232"/>
<polygon fill="#000000" stroke="#000000" points="443.5656,-73.4632 448.7382,-64.2169 438.9285,-68.2194 443.5656,-73.4632"/>
</g>
<!-- 13 -->
<g id="node14" class="node">
<title>13</title>
<path fill="#53aae8" stroke="#000000" d="M769.0835,-292C769.0835,-292 673.2573,-292 673.2573,-292 667.2573,-292 661.2573,-286 661.2573,-280 661.2573,-280 661.2573,-226 661.2573,-226 661.2573,-220 667.2573,-214 673.2573,-214 673.2573,-214 769.0835,-214 769.0835,-214 775.0835,-214 781.0835,-220 781.0835,-226 781.0835,-226 781.0835,-280 781.0835,-280 781.0835,-286 775.0835,-292 769.0835,-292"/>
<text text-anchor="middle" x="721.1704" y="-276.8" font-family="Helvetica,sans-Serif" font-size="14.00" fill="#000000">stalk&#45;root &lt;= 0.5</text>
<text text-anchor="middle" x="721.1704" y="-262.8" font-family="Helvetica,sans-Serif" font-size="14.00" fill="#000000">gini = 0.21</text>
<text text-anchor="middle" x="721.1704" y="-248.8" font-family="Helvetica,sans-Serif" font-size="14.00" fill="#000000">samples = 568</text>
<text text-anchor="middle" x="721.1704" y="-234.8" font-family="Helvetica,sans-Serif" font-size="14.00" fill="#000000">value = [67, 501]</text>
<text text-anchor="middle" x="721.1704" y="-220.8" font-family="Helvetica,sans-Serif" font-size="14.00" fill="#000000">class = e</text>
</g>
<!-- 12&#45;&gt;13 -->
<g id="edge13" class="edge">
<title>12&#45;&gt;13</title>
<path fill="none" stroke="#000000" d="M721.1704,-327.7677C721.1704,-319.6172 721.1704,-310.9283 721.1704,-302.4649"/>
<polygon fill="#000000" stroke="#000000" points="724.6705,-302.3046 721.1704,-292.3046 717.6705,-302.3047 724.6705,-302.3046"/>
</g>
<!-- 16 -->
<g id="node17" class="node">
<title>16</title>
<path fill="#e99456" stroke="#000000" d="M984.1566,-292C984.1566,-292 872.1842,-292 872.1842,-292 866.1842,-292 860.1842,-286 860.1842,-280 860.1842,-280 860.1842,-226 860.1842,-226 860.1842,-220 866.1842,-214 872.1842,-214 872.1842,-214 984.1566,-214 984.1566,-214 990.1566,-214 996.1566,-220 996.1566,-226 996.1566,-226 996.1566,-280 996.1566,-280 996.1566,-286 990.1566,-292 984.1566,-292"/>
<text text-anchor="middle" x="928.1704" y="-276.8" font-family="Helvetica,sans-Serif" font-size="14.00" fill="#000000">gill&#45;size &lt;= 0.5</text>
<text text-anchor="middle" x="928.1704" y="-262.8" font-family="Helvetica,sans-Serif" font-size="14.00" fill="#000000">gini = 0.22</text>
<text text-anchor="middle" x="928.1704" y="-248.8" font-family="Helvetica,sans-Serif" font-size="14.00" fill="#000000">samples = 3265</text>
<text text-anchor="middle" x="928.1704" y="-234.8" font-family="Helvetica,sans-Serif" font-size="14.00" fill="#000000">value = [2846, 419]</text>
<text text-anchor="middle" x="928.1704" y="-220.8" font-family="Helvetica,sans-Serif" font-size="14.00" fill="#000000">class = p</text>
</g>
<!-- 12&#45;&gt;16 -->
<g id="edge16" class="edge">
<title>12&#45;&gt;16</title>
<path fill="none" stroke="#000000" d="M792.1185,-327.9272C811.199,-317.4191 831.9227,-306.006 851.3087,-295.3296"/>
<polygon fill="#000000" stroke="#000000" points="853.0398,-298.372 860.1109,-290.4821 849.663,-292.2403 853.0398,-298.372"/>
</g>
<!-- 14 -->
<g id="node15" class="node">
<title>14</title>
<path fill="#e58139" stroke="#000000" d="M700.5118,-171C700.5118,-171 619.829,-171 619.829,-171 613.829,-171 607.829,-165 607.829,-159 607.829,-159 607.829,-119 607.829,-119 607.829,-113 613.829,-107 619.829,-107 619.829,-107 700.5118,-107 700.5118,-107 706.5118,-107 712.5118,-113 712.5118,-119 712.5118,-119 712.5118,-159 712.5118,-159 712.5118,-165 706.5118,-171 700.5118,-171"/>
<text text-anchor="middle" x="660.1704" y="-155.8" font-family="Helvetica,sans-Serif" font-size="14.00" fill="#000000">gini = 0.0</text>
<text text-anchor="middle" x="660.1704" y="-141.8" font-family="Helvetica,sans-Serif" font-size="14.00" fill="#000000">samples = 67</text>
<text text-anchor="middle" x="660.1704" y="-127.8" font-family="Helvetica,sans-Serif" font-size="14.00" fill="#000000">value = [67, 0]</text>
<text text-anchor="middle" x="660.1704" y="-113.8" font-family="Helvetica,sans-Serif" font-size="14.00" fill="#000000">class = p</text>
</g>
<!-- 13&#45;&gt;14 -->
<g id="edge14" class="edge">
<title>13&#45;&gt;14</title>
<path fill="none" stroke="#000000" d="M700.1777,-213.7677C694.362,-202.8991 688.034,-191.0729 682.163,-180.1009"/>
<polygon fill="#000000" stroke="#000000" points="685.1642,-178.291 677.3602,-171.1252 678.9922,-181.5936 685.1642,-178.291"/>
</g>
<!-- 15 -->
<g id="node16" class="node">
<title>15</title>
<path fill="#399de5" stroke="#000000" d="M830.2974,-171C830.2974,-171 742.0434,-171 742.0434,-171 736.0434,-171 730.0434,-165 730.0434,-159 730.0434,-159 730.0434,-119 730.0434,-119 730.0434,-113 736.0434,-107 742.0434,-107 742.0434,-107 830.2974,-107 830.2974,-107 836.2974,-107 842.2974,-113 842.2974,-119 842.2974,-119 842.2974,-159 842.2974,-159 842.2974,-165 836.2974,-171 830.2974,-171"/>
<text text-anchor="middle" x="786.1704" y="-155.8" font-family="Helvetica,sans-Serif" font-size="14.00" fill="#000000">gini = 0.0</text>
<text text-anchor="middle" x="786.1704" y="-141.8" font-family="Helvetica,sans-Serif" font-size="14.00" fill="#000000">samples = 501</text>
<text text-anchor="middle" x="786.1704" y="-127.8" font-family="Helvetica,sans-Serif" font-size="14.00" fill="#000000">value = [0, 501]</text>
<text text-anchor="middle" x="786.1704" y="-113.8" font-family="Helvetica,sans-Serif" font-size="14.00" fill="#000000">class = e</text>
</g>
<!-- 13&#45;&gt;15 -->
<g id="edge15" class="edge">
<title>13&#45;&gt;15</title>
<path fill="none" stroke="#000000" d="M743.5397,-213.7677C749.7367,-202.8991 756.4797,-191.0729 762.7357,-180.1009"/>
<polygon fill="#000000" stroke="#000000" points="765.9407,-181.546 767.8534,-171.1252 759.8597,-178.0787 765.9407,-181.546"/>
</g>
<!-- 17 -->
<g id="node18" class="node">
<title>17</title>
<path fill="#e6843e" stroke="#000000" d="M983.7388,-178C983.7388,-178 872.602,-178 872.602,-178 866.602,-178 860.602,-172 860.602,-166 860.602,-166 860.602,-112 860.602,-112 860.602,-106 866.602,-100 872.602,-100 872.602,-100 983.7388,-100 983.7388,-100 989.7388,-100 995.7388,-106 995.7388,-112 995.7388,-112 995.7388,-166 995.7388,-166 995.7388,-172 989.7388,-178 983.7388,-178"/>
<text text-anchor="middle" x="928.1704" y="-162.8" font-family="Helvetica,sans-Serif" font-size="14.00" fill="#000000">ring&#45;number &lt;= 0.5</text>
<text text-anchor="middle" x="928.1704" y="-148.8" font-family="Helvetica,sans-Serif" font-size="14.00" fill="#000000">gini = 0.05</text>
<text text-anchor="middle" x="928.1704" y="-134.8" font-family="Helvetica,sans-Serif" font-size="14.00" fill="#000000">samples = 2742</text>
<text text-anchor="middle" x="928.1704" y="-120.8" font-family="Helvetica,sans-Serif" font-size="14.00" fill="#000000">value = [2678, 64]</text>
<text text-anchor="middle" x="928.1704" y="-106.8" font-family="Helvetica,sans-Serif" font-size="14.00" fill="#000000">class = p</text>
</g>
<!-- 16&#45;&gt;17 -->
<g id="edge17" class="edge">
<title>16&#45;&gt;17</title>
<path fill="none" stroke="#000000" d="M928.1704,-213.7677C928.1704,-205.6172 928.1704,-196.9283 928.1704,-188.4649"/>
<polygon fill="#000000" stroke="#000000" points="931.6705,-188.3046 928.1704,-178.3046 924.6705,-188.3047 931.6705,-188.3046"/>
</g>
<!-- 20 -->
<g id="node21" class="node">
<title>20</title>
<path fill="#97cbf1" stroke="#000000" d="M1132.8561,-178C1132.8561,-178 1025.4847,-178 1025.4847,-178 1019.4847,-178 1013.4847,-172 1013.4847,-166 1013.4847,-166 1013.4847,-112 1013.4847,-112 1013.4847,-106 1019.4847,-100 1025.4847,-100 1025.4847,-100 1132.8561,-100 1132.8561,-100 1138.8561,-100 1144.8561,-106 1144.8561,-112 1144.8561,-112 1144.8561,-166 1144.8561,-166 1144.8561,-172 1138.8561,-178 1132.8561,-178"/>
<text text-anchor="middle" x="1079.1704" y="-162.8" font-family="Helvetica,sans-Serif" font-size="14.00" fill="#000000">stalk&#45;shape &lt;= 0.5</text>
<text text-anchor="middle" x="1079.1704" y="-148.8" font-family="Helvetica,sans-Serif" font-size="14.00" fill="#000000">gini = 0.44</text>
<text text-anchor="middle" x="1079.1704" y="-134.8" font-family="Helvetica,sans-Serif" font-size="14.00" fill="#000000">samples = 523</text>
<text text-anchor="middle" x="1079.1704" y="-120.8" font-family="Helvetica,sans-Serif" font-size="14.00" fill="#000000">value = [168, 355]</text>
<text text-anchor="middle" x="1079.1704" y="-106.8" font-family="Helvetica,sans-Serif" font-size="14.00" fill="#000000">class = e</text>
</g>
<!-- 16&#45;&gt;20 -->
<g id="edge20" class="edge">
<title>16&#45;&gt;20</title>
<path fill="none" stroke="#000000" d="M980.136,-213.7677C992.782,-204.2204 1006.4067,-193.9342 1019.3833,-184.1373"/>
<polygon fill="#000000" stroke="#000000" points="1021.4928,-186.9302 1027.3649,-178.1115 1017.2751,-181.3435 1021.4928,-186.9302"/>
</g>
<!-- 18 -->
<g id="node19" class="node">
<title>18</title>
<path fill="#399de5" stroke="#000000" d="M836.5118,-64C836.5118,-64 755.829,-64 755.829,-64 749.829,-64 743.829,-58 743.829,-52 743.829,-52 743.829,-12 743.829,-12 743.829,-6 749.829,0 755.829,0 755.829,0 836.5118,0 836.5118,0 842.5118,0 848.5118,-6 848.5118,-12 848.5118,-12 848.5118,-52 848.5118,-52 848.5118,-58 842.5118,-64 836.5118,-64"/>
<text text-anchor="middle" x="796.1704" y="-48.8" font-family="Helvetica,sans-Serif" font-size="14.00" fill="#000000">gini = 0.0</text>
<text text-anchor="middle" x="796.1704" y="-34.8" font-family="Helvetica,sans-Serif" font-size="14.00" fill="#000000">samples = 25</text>
<text text-anchor="middle" x="796.1704" y="-20.8" font-family="Helvetica,sans-Serif" font-size="14.00" fill="#000000">value = [0, 25]</text>
<text text-anchor="middle" x="796.1704" y="-6.8" font-family="Helvetica,sans-Serif" font-size="14.00" fill="#000000">class = e</text>
</g>
<!-- 17&#45;&gt;18 -->
<g id="edge18" class="edge">
<title>17&#45;&gt;18</title>
<path fill="none" stroke="#000000" d="M879.768,-99.7647C868.0505,-90.2664 855.5346,-80.121 843.8506,-70.6498"/>
<polygon fill="#000000" stroke="#000000" points="845.8869,-67.795 835.9146,-64.2169 841.479,-73.2329 845.8869,-67.795"/>
</g>
<!-- 19 -->
<g id="node20" class="node">
<title>19</title>
<path fill="#e5833c" stroke="#000000" d="M981.87,-64C981.87,-64 878.4708,-64 878.4708,-64 872.4708,-64 866.4708,-58 866.4708,-52 866.4708,-52 866.4708,-12 866.4708,-12 866.4708,-6 872.4708,0 878.4708,0 878.4708,0 981.87,0 981.87,0 987.87,0 993.87,-6 993.87,-12 993.87,-12 993.87,-52 993.87,-52 993.87,-58 987.87,-64 981.87,-64"/>
<text text-anchor="middle" x="930.1704" y="-48.8" font-family="Helvetica,sans-Serif" font-size="14.00" fill="#000000">gini = 0.03</text>
<text text-anchor="middle" x="930.1704" y="-34.8" font-family="Helvetica,sans-Serif" font-size="14.00" fill="#000000">samples = 2717</text>
<text text-anchor="middle" x="930.1704" y="-20.8" font-family="Helvetica,sans-Serif" font-size="14.00" fill="#000000">value = [2678, 39]</text>
<text text-anchor="middle" x="930.1704" y="-6.8" font-family="Helvetica,sans-Serif" font-size="14.00" fill="#000000">class = p</text>
</g>
<!-- 17&#45;&gt;19 -->
<g id="edge19" class="edge">
<title>17&#45;&gt;19</title>
<path fill="none" stroke="#000000" d="M928.9038,-99.7647C929.0591,-91.4537 929.2237,-82.6472 929.3811,-74.2305"/>
<polygon fill="#000000" stroke="#000000" points="932.8806,-74.2806 929.5682,-64.2169 925.8819,-74.1497 932.8806,-74.2806"/>
</g>
<!-- 21 -->
<g id="node22" class="node">
<title>21</title>
<path fill="#6eb7ec" stroke="#000000" d="M1124.0835,-64C1124.0835,-64 1028.2573,-64 1028.2573,-64 1022.2573,-64 1016.2573,-58 1016.2573,-52 1016.2573,-52 1016.2573,-12 1016.2573,-12 1016.2573,-6 1022.2573,0 1028.2573,0 1028.2573,0 1124.0835,0 1124.0835,0 1130.0835,0 1136.0835,-6 1136.0835,-12 1136.0835,-12 1136.0835,-52 1136.0835,-52 1136.0835,-58 1130.0835,-64 1124.0835,-64"/>
<text text-anchor="middle" x="1076.1704" y="-48.8" font-family="Helvetica,sans-Serif" font-size="14.00" fill="#000000">gini = 0.33</text>
<text text-anchor="middle" x="1076.1704" y="-34.8" font-family="Helvetica,sans-Serif" font-size="14.00" fill="#000000">samples = 450</text>
<text text-anchor="middle" x="1076.1704" y="-20.8" font-family="Helvetica,sans-Serif" font-size="14.00" fill="#000000">value = [95, 355]</text>
<text text-anchor="middle" x="1076.1704" y="-6.8" font-family="Helvetica,sans-Serif" font-size="14.00" fill="#000000">class = e</text>
</g>
<!-- 20&#45;&gt;21 -->
<g id="edge21" class="edge">
<title>20&#45;&gt;21</title>
<path fill="none" stroke="#000000" d="M1078.0704,-99.7647C1077.8373,-91.4537 1077.5904,-82.6472 1077.3544,-74.2305"/>
<polygon fill="#000000" stroke="#000000" points="1080.8527,-74.1148 1077.0737,-64.2169 1073.8554,-74.3111 1080.8527,-74.1148"/>
</g>
<!-- 22 -->
<g id="node23" class="node">
<title>22</title>
<path fill="#e58139" stroke="#000000" d="M1246.5118,-64C1246.5118,-64 1165.829,-64 1165.829,-64 1159.829,-64 1153.829,-58 1153.829,-52 1153.829,-52 1153.829,-12 1153.829,-12 1153.829,-6 1159.829,0 1165.829,0 1165.829,0 1246.5118,0 1246.5118,0 1252.5118,0 1258.5118,-6 1258.5118,-12 1258.5118,-12 1258.5118,-52 1258.5118,-52 1258.5118,-58 1252.5118,-64 1246.5118,-64"/>
<text text-anchor="middle" x="1206.1704" y="-48.8" font-family="Helvetica,sans-Serif" font-size="14.00" fill="#000000">gini = 0.0</text>
<text text-anchor="middle" x="1206.1704" y="-34.8" font-family="Helvetica,sans-Serif" font-size="14.00" fill="#000000">samples = 73</text>
<text text-anchor="middle" x="1206.1704" y="-20.8" font-family="Helvetica,sans-Serif" font-size="14.00" fill="#000000">value = [73, 0]</text>
<text text-anchor="middle" x="1206.1704" y="-6.8" font-family="Helvetica,sans-Serif" font-size="14.00" fill="#000000">class = p</text>
</g>
<!-- 20&#45;&gt;22 -->
<g id="edge22" class="edge">
<title>20&#45;&gt;22</title>
<path fill="none" stroke="#000000" d="M1125.7394,-99.7647C1136.9047,-90.3577 1148.8234,-80.316 1159.9718,-70.9232"/>
<polygon fill="#000000" stroke="#000000" points="1162.5393,-73.3368 1167.9317,-64.2169 1158.029,-67.9835 1162.5393,-73.3368"/>
</g>
</g>
</svg>
