<?xml version="1.0" encoding="UTF-8" standalone="no"?>
<!DOCTYPE svg PUBLIC "-//W3C//DTD SVG 1.1//EN"
 "http://www.w3.org/Graphics/SVG/1.1/DTD/svg11.dtd">
<!-- Generated by graphviz version 2.40.1 (20161225.0304)
 -->
<!-- Title: Tree Pages: 1 -->
<svg width="1318pt" height="528pt"
 viewBox="0.00 0.00 1318.34 528.00" xmlns="http://www.w3.org/2000/svg" xmlns:xlink="http://www.w3.org/1999/xlink">
<g id="graph0" class="graph" transform="scale(1 1) rotate(0) translate(4 524)">
<title>Tree</title>
<polygon fill="#ffffff" stroke="transparent" points="-4,4 -4,-524 1314.3408,-524 1314.3408,4 -4,4"/>
<!-- 0 -->
<g id="node1" class="node">
<title>0</title>
<path fill="#fdf6f1" stroke="#000000" d="M639.9422,-520C639.9422,-520 520.3987,-520 520.3987,-520 514.3987,-520 508.3987,-514 508.3987,-508 508.3987,-508 508.3987,-454 508.3987,-454 508.3987,-448 514.3987,-442 520.3987,-442 520.3987,-442 639.9422,-442 639.9422,-442 645.9422,-442 651.9422,-448 651.9422,-454 651.9422,-454 651.9422,-508 651.9422,-508 651.9422,-514 645.9422,-520 639.9422,-520"/>
<text text-anchor="middle" x="580.1704" y="-504.8" font-family="Helvetica,sans-Serif" font-size="14.00" fill="#000000">gill&#45;color &lt;= 3.5</text>
<text text-anchor="middle" x="580.1704" y="-490.8" font-family="Helvetica,sans-Serif" font-size="14.00" fill="#000000">gini = 0.5</text>
<text text-anchor="middle" x="580.1704" y="-476.8" font-family="Helvetica,sans-Serif" font-size="14.00" fill="#000000">samples = 6499</text>
<text text-anchor="middle" x="580.1704" y="-462.8" font-family="Helvetica,sans-Serif" font-size="14.00" fill="#000000">value = [3372, 3127]</text>
<text text-anchor="middle" x="580.1704" y="-448.8" font-family="Helvetica,sans-Serif" font-size="14.00" fill="#000000">class = p</text>
</g>
<!-- 1 -->
<g id="node2" class="node">
<title>1</title>
<path fill="#61b1ea" stroke="#000000" d="M486.1566,-406C486.1566,-406 374.1842,-406 374.1842,-406 368.1842,-406 362.1842,-400 362.1842,-394 362.1842,-394 362.1842,-340 362.1842,-340 362.1842,-334 368.1842,-328 374.1842,-328 374.1842,-328 486.1566,-328 486.1566,-328 492.1566,-328 498.1566,-334 498.1566,-340 498.1566,-340 498.1566,-394 498.1566,-394 498.1566,-400 492.1566,-406 486.1566,-406"/>
<text text-anchor="middle" x="430.1704" y="-390.8" font-family="Helvetica,sans-Serif" font-size="14.00" fill="#000000">population &lt;= 3.5</text>
<text text-anchor="middle" x="430.1704" y="-376.8" font-family="Helvetica,sans-Serif" font-size="14.00" fill="#000000">gini = 0.28</text>
<text text-anchor="middle" x="430.1704" y="-362.8" font-family="Helvetica,sans-Serif" font-size="14.00" fill="#000000">samples = 2662</text>
<text text-anchor="middle" x="430.1704" y="-348.8" font-family="Helvetica,sans-Serif" font-size="14.00" fill="#000000">value = [445, 2217]</text>
<text text-anchor="middle" x="430.1704" y="-334.8" font-family="Helvetica,sans-Serif" font-size="14.00" fill="#000000">class = e</text>
</g>
<!-- 0&#45;&gt;1 -->
<g id="edge1" class="edge">
<title>0&#45;&gt;1</title>
<path fill="none" stroke="#000000" d="M528.5489,-441.7677C516.1052,-432.3105 502.7076,-422.1282 489.9265,-412.4147"/>
<polygon fill="#000000" stroke="#000000" points="491.7123,-409.3758 481.6329,-406.1115 487.4767,-414.9489 491.7123,-409.3758"/>
<text text-anchor="middle" x="485.0107" y="-426.6822" font-family="Helvetica,sans-Serif" font-size="14.00" fill="#000000">True</text>
</g>
<!-- 12 -->
<g id="node13" class="node">
<title>12</title>
<path fill="#eda877" stroke="#000000" d="M795.6877,-406C795.6877,-406 658.6531,-406 658.6531,-406 652.6531,-406 646.6531,-400 646.6531,-394 646.6531,-394 646.6531,-340 646.6531,-340 646.6531,-334 652.6531,-328 658.6531,-328 658.6531,-328 795.6877,-328 795.6877,-328 801.6877,-328 807.6877,-334 807.6877,-340 807.6877,-340 807.6877,-394 807.6877,-394 807.6877,-400 801.6877,-406 795.6877,-406"/>
<text text-anchor="middle" x="727.1704" y="-390.8" font-family="Helvetica,sans-Serif" font-size="14.00" fill="#000000">spore&#45;print&#45;color &lt;= 1.5</text>
<text text-anchor="middle" x="727.1704" y="-376.8" font-family="Helvetica,sans-Serif" font-size="14.00" fill="#000000">gini = 0.36</text>
<text text-anchor="middle" x="727.1704" y="-362.8" font-family="Helvetica,sans-Serif" font-size="14.00" fill="#000000">samples = 3837</text>
<text text-anchor="middle" x="727.1704" y="-348.8" font-family="Helvetica,sans-Serif" font-size="14.00" fill="#000000">value = [2927, 910]</text>
<text text-anchor="middle" x="727.1704" y="-334.8" font-family="Helvetica,sans-Serif" font-size="14.00" fill="#000000">class = p</text>
</g>
<!-- 0&#45;&gt;12 -->
<g id="edge12" class="edge">
<title>0&#45;&gt;12</title>
<path fill="none" stroke="#000000" d="M630.7595,-441.7677C642.8861,-432.3633 655.9373,-422.242 668.3994,-412.5775"/>
<polygon fill="#000000" stroke="#000000" points="670.7308,-415.1987 676.4881,-406.3046 666.441,-409.6671 670.7308,-415.1987"/>
<text text-anchor="middle" x="673.3521" y="-426.9072" font-family="Helvetica,sans-Serif" font-size="14.00" fill="#000000">False</text>
</g>
<!-- 2 -->
<g id="node3" class="node">
<title>2</title>
<path fill="#e99355" stroke="#000000" d="M250.6877,-292C250.6877,-292 113.6531,-292 113.6531,-292 107.6531,-292 101.6531,-286 101.6531,-280 101.6531,-280 101.6531,-226 101.6531,-226 101.6531,-220 107.6531,-214 113.6531,-214 113.6531,-214 250.6877,-214 250.6877,-214 256.6877,-214 262.6877,-220 262.6877,-226 262.6877,-226 262.6877,-280 262.6877,-280 262.6877,-286 256.6877,-292 250.6877,-292"/>
<text text-anchor="middle" x="182.1704" y="-276.8" font-family="Helvetica,sans-Serif" font-size="14.00" fill="#000000">spore&#45;print&#45;color &lt;= 1.5</text>
<text text-anchor="middle" x="182.1704" y="-262.8" font-family="Helvetica,sans-Serif" font-size="14.00" fill="#000000">gini = 0.21</text>
<text text-anchor="middle" x="182.1704" y="-248.8" font-family="Helvetica,sans-Serif" font-size="14.00" fill="#000000">samples = 474</text>
<text text-anchor="middle" x="182.1704" y="-234.8" font-family="Helvetica,sans-Serif" font-size="14.00" fill="#000000">value = [416, 58]</text>
<text text-anchor="middle" x="182.1704" y="-220.8" font-family="Helvetica,sans-Serif" font-size="14.00" fill="#000000">class = p</text>
</g>
<!-- 1&#45;&gt;2 -->
<g id="edge2" class="edge">
<title>1&#45;&gt;2</title>
<path fill="none" stroke="#000000" d="M362.4033,-335.849C334.5899,-323.0638 301.9877,-308.0773 272.2151,-294.3915"/>
<polygon fill="#000000" stroke="#000000" points="273.6225,-291.1864 263.0746,-290.1898 270.6988,-297.5466 273.6225,-291.1864"/>
</g>
<!-- 7 -->
<g id="node8" class="node">
<title>7</title>
<path fill="#3c9ee5" stroke="#000000" d="M481.87,-292C481.87,-292 378.4708,-292 378.4708,-292 372.4708,-292 366.4708,-286 366.4708,-280 366.4708,-280 366.4708,-226 366.4708,-226 366.4708,-220 372.4708,-214 378.4708,-214 378.4708,-214 481.87,-214 481.87,-214 487.87,-214 493.87,-220 493.87,-226 493.87,-226 493.87,-280 493.87,-280 493.87,-286 487.87,-292 481.87,-292"/>
<text text-anchor="middle" x="430.1704" y="-276.8" font-family="Helvetica,sans-Serif" font-size="14.00" fill="#000000">stalk&#45;root &lt;= 2.0</text>
<text text-anchor="middle" x="430.1704" y="-262.8" font-family="Helvetica,sans-Serif" font-size="14.00" fill="#000000">gini = 0.03</text>
<text text-anchor="middle" x="430.1704" y="-248.8" font-family="Helvetica,sans-Serif" font-size="14.00" fill="#000000">samples = 2188</text>
<text text-anchor="middle" x="430.1704" y="-234.8" font-family="Helvetica,sans-Serif" font-size="14.00" fill="#000000">value = [29, 2159]</text>
<text text-anchor="middle" x="430.1704" y="-220.8" font-family="Helvetica,sans-Serif" font-size="14.00" fill="#000000">class = e</text>
</g>
<!-- 1&#45;&gt;7 -->
<g id="edge7" class="edge">
<title>1&#45;&gt;7</title>
<path fill="none" stroke="#000000" d="M430.1704,-327.7677C430.1704,-319.6172 430.1704,-310.9283 430.1704,-302.4649"/>
<polygon fill="#000000" stroke="#000000" points="433.6705,-302.3046 430.1704,-292.3046 426.6705,-302.3047 433.6705,-302.3046"/>
</g>
<!-- 3 -->
<g id="node4" class="node">
<title>3</title>
<path fill="#399de5" stroke="#000000" d="M92.5118,-171C92.5118,-171 11.829,-171 11.829,-171 5.829,-171 -.171,-165 -.171,-159 -.171,-159 -.171,-119 -.171,-119 -.171,-113 5.829,-107 11.829,-107 11.829,-107 92.5118,-107 92.5118,-107 98.5118,-107 104.5118,-113 104.5118,-119 104.5118,-119 104.5118,-159 104.5118,-159 104.5118,-165 98.5118,-171 92.5118,-171"/>
<text text-anchor="middle" x="52.1704" y="-155.8" font-family="Helvetica,sans-Serif" font-size="14.00" fill="#000000">gini = 0.0</text>
<text text-anchor="middle" x="52.1704" y="-141.8" font-family="Helvetica,sans-Serif" font-size="14.00" fill="#000000">samples = 39</text>
<text text-anchor="middle" x="52.1704" y="-127.8" font-family="Helvetica,sans-Serif" font-size="14.00" fill="#000000">value = [0, 39]</text>
<text text-anchor="middle" x="52.1704" y="-113.8" font-family="Helvetica,sans-Serif" font-size="14.00" fill="#000000">class = e</text>
</g>
<!-- 2&#45;&gt;3 -->
<g id="edge3" class="edge">
<title>2&#45;&gt;3</title>
<path fill="none" stroke="#000000" d="M137.4318,-213.7677C124.1702,-202.1383 109.6583,-189.4125 96.4274,-177.81"/>
<polygon fill="#000000" stroke="#000000" points="98.6307,-175.0869 88.8044,-171.1252 94.0154,-180.35 98.6307,-175.0869"/>
</g>
<!-- 4 -->
<g id="node5" class="node">
<title>4</title>
<path fill="#e68742" stroke="#000000" d="M230.0835,-178C230.0835,-178 134.2573,-178 134.2573,-178 128.2573,-178 122.2573,-172 122.2573,-166 122.2573,-166 122.2573,-112 122.2573,-112 122.2573,-106 128.2573,-100 134.2573,-100 134.2573,-100 230.0835,-100 230.0835,-100 236.0835,-100 242.0835,-106 242.0835,-112 242.0835,-112 242.0835,-166 242.0835,-166 242.0835,-172 236.0835,-178 230.0835,-178"/>
<text text-anchor="middle" x="182.1704" y="-162.8" font-family="Helvetica,sans-Serif" font-size="14.00" fill="#000000">gill&#45;size &lt;= 0.5</text>
<text text-anchor="middle" x="182.1704" y="-148.8" font-family="Helvetica,sans-Serif" font-size="14.00" fill="#000000">gini = 0.08</text>
<text text-anchor="middle" x="182.1704" y="-134.8" font-family="Helvetica,sans-Serif" font-size="14.00" fill="#000000">samples = 435</text>
<text text-anchor="middle" x="182.1704" y="-120.8" font-family="Helvetica,sans-Serif" font-size="14.00" fill="#000000">value = [416, 19]</text>
<text text-anchor="middle" x="182.1704" y="-106.8" font-family="Helvetica,sans-Serif" font-size="14.00" fill="#000000">class = p</text>
</g>
<!-- 2&#45;&gt;4 -->
<g id="edge4" class="edge">
<title>2&#45;&gt;4</title>
<path fill="none" stroke="#000000" d="M182.1704,-213.7677C182.1704,-205.6172 182.1704,-196.9283 182.1704,-188.4649"/>
<polygon fill="#000000" stroke="#000000" points="185.6705,-188.3046 182.1704,-178.3046 178.6705,-188.3047 185.6705,-188.3046"/>
</g>
<!-- 5 -->
<g id="node6" class="node">
<title>5</title>
<path fill="#e58139" stroke="#000000" d="M114.2974,-64C114.2974,-64 26.0434,-64 26.0434,-64 20.0434,-64 14.0434,-58 14.0434,-52 14.0434,-52 14.0434,-12 14.0434,-12 14.0434,-6 20.0434,0 26.0434,0 26.0434,0 114.2974,0 114.2974,0 120.2974,0 126.2974,-6 126.2974,-12 126.2974,-12 126.2974,-52 126.2974,-52 126.2974,-58 120.2974,-64 114.2974,-64"/>
<text text-anchor="middle" x="70.1704" y="-48.8" font-family="Helvetica,sans-Serif" font-size="14.00" fill="#000000">gini = 0.0</text>
<text text-anchor="middle" x="70.1704" y="-34.8" font-family="Helvetica,sans-Serif" font-size="14.00" fill="#000000">samples = 416</text>
<text text-anchor="middle" x="70.1704" y="-20.8" font-family="Helvetica,sans-Serif" font-size="14.00" fill="#000000">value = [416, 0]</text>
<text text-anchor="middle" x="70.1704" y="-6.8" font-family="Helvetica,sans-Serif" font-size="14.00" fill="#000000">class = p</text>
</g>
<!-- 4&#45;&gt;5 -->
<g id="edge5" class="edge">
<title>4&#45;&gt;5</title>
<path fill="none" stroke="#000000" d="M141.1017,-99.7647C131.3507,-90.4491 120.9482,-80.5109 111.199,-71.197"/>
<polygon fill="#000000" stroke="#000000" points="113.5411,-68.594 103.8927,-64.2169 108.7056,-73.6555 113.5411,-68.594"/>
</g>
<!-- 6 -->
<g id="node7" class="node">
<title>6</title>
<path fill="#399de5" stroke="#000000" d="M236.5118,-64C236.5118,-64 155.829,-64 155.829,-64 149.829,-64 143.829,-58 143.829,-52 143.829,-52 143.829,-12 143.829,-12 143.829,-6 149.829,0 155.829,0 155.829,0 236.5118,0 236.5118,0 242.5118,0 248.5118,-6 248.5118,-12 248.5118,-12 248.5118,-52 248.5118,-52 248.5118,-58 242.5118,-64 236.5118,-64"/>
<text text-anchor="middle" x="196.1704" y="-48.8" font-family="Helvetica,sans-Serif" font-size="14.00" fill="#000000">gini = 0.0</text>
<text text-anchor="middle" x="196.1704" y="-34.8" font-family="Helvetica,sans-Serif" font-size="14.00" fill="#000000">samples = 19</text>
<text text-anchor="middle" x="196.1704" y="-20.8" font-family="Helvetica,sans-Serif" font-size="14.00" fill="#000000">value = [0, 19]</text>
<text text-anchor="middle" x="196.1704" y="-6.8" font-family="Helvetica,sans-Serif" font-size="14.00" fill="#000000">class = e</text>
</g>
<!-- 4&#45;&gt;6 -->
<g id="edge6" class="edge">
<title>4&#45;&gt;6</title>
<path fill="none" stroke="#000000" d="M187.304,-99.7647C188.3914,-91.4537 189.5437,-82.6472 190.6449,-74.2305"/>
<polygon fill="#000000" stroke="#000000" points="194.1281,-74.5865 191.9551,-64.2169 187.1873,-73.6783 194.1281,-74.5865"/>
</g>
<!-- 8 -->
<g id="node9" class="node">
<title>8</title>
<path fill="#3a9de5" stroke="#000000" d="M456.3697,-178C456.3697,-178 271.9711,-178 271.9711,-178 265.9711,-178 259.9711,-172 259.9711,-166 259.9711,-166 259.9711,-112 259.9711,-112 259.9711,-106 265.9711,-100 271.9711,-100 271.9711,-100 456.3697,-100 456.3697,-100 462.3697,-100 468.3697,-106 468.3697,-112 468.3697,-112 468.3697,-166 468.3697,-166 468.3697,-172 462.3697,-178 456.3697,-178"/>
<text text-anchor="middle" x="364.1704" y="-162.8" font-family="Helvetica,sans-Serif" font-size="14.00" fill="#000000">stalk&#45;surface&#45;below&#45;ring &lt;= 0.5</text>
<text text-anchor="middle" x="364.1704" y="-148.8" font-family="Helvetica,sans-Serif" font-size="14.00" fill="#000000">gini = 0.01</text>
<text text-anchor="middle" x="364.1704" y="-134.8" font-family="Helvetica,sans-Serif" font-size="14.00" fill="#000000">samples = 2170</text>
<text text-anchor="middle" x="364.1704" y="-120.8" font-family="Helvetica,sans-Serif" font-size="14.00" fill="#000000">value = [11, 2159]</text>
<text text-anchor="middle" x="364.1704" y="-106.8" font-family="Helvetica,sans-Serif" font-size="14.00" fill="#000000">class = e</text>
</g>
<!-- 7&#45;&gt;8 -->
<g id="edge8" class="edge">
<title>7&#45;&gt;8</title>
<path fill="none" stroke="#000000" d="M407.457,-213.7677C402.479,-205.1694 397.1541,-195.9718 392.0016,-187.072"/>
<polygon fill="#000000" stroke="#000000" points="394.9651,-185.2053 386.9257,-178.3046 388.9071,-188.7126 394.9651,-185.2053"/>
</g>
<!-- 11 -->
<g id="node12" class="node">
<title>11</title>
<path fill="#e58139" stroke="#000000" d="M578.5118,-171C578.5118,-171 497.829,-171 497.829,-171 491.829,-171 485.829,-165 485.829,-159 485.829,-159 485.829,-119 485.829,-119 485.829,-113 491.829,-107 497.829,-107 497.829,-107 578.5118,-107 578.5118,-107 584.5118,-107 590.5118,-113 590.5118,-119 590.5118,-119 590.5118,-159 590.5118,-159 590.5118,-165 584.5118,-171 578.5118,-171"/>
<text text-anchor="middle" x="538.1704" y="-155.8" font-family="Helvetica,sans-Serif" font-size="14.00" fill="#000000">gini = 0.0</text>
<text text-anchor="middle" x="538.1704" y="-141.8" font-family="Helvetica,sans-Serif" font-size="14.00" fill="#000000">samples = 18</text>
<text text-anchor="middle" x="538.1704" y="-127.8" font-family="Helvetica,sans-Serif" font-size="14.00" fill="#000000">value = [18, 0]</text>
<text text-anchor="middle" x="538.1704" y="-113.8" font-family="Helvetica,sans-Serif" font-size="14.00" fill="#000000">class = p</text>
</g>
<!-- 7&#45;&gt;11 -->
<g id="edge11" class="edge">
<title>7&#45;&gt;11</title>
<path fill="none" stroke="#000000" d="M467.3379,-213.7677C478.1493,-202.3556 489.9609,-189.8878 500.7856,-178.4618"/>
<polygon fill="#000000" stroke="#000000" points="503.3994,-180.7919 507.736,-171.1252 498.3177,-175.9776 503.3994,-180.7919"/>
</g>
<!-- 9 -->
<g id="node10" class="node">
<title>9</title>
<path fill="#a1d0f3" stroke="#000000" d="M393.7652,-64C393.7652,-64 306.5756,-64 306.5756,-64 300.5756,-64 294.5756,-58 294.5756,-52 294.5756,-52 294.5756,-12 294.5756,-12 294.5756,-6 300.5756,0 306.5756,0 306.5756,0 393.7652,0 393.7652,0 399.7652,0 405.7652,-6 405.7652,-12 405.7652,-12 405.7652,-52 405.7652,-52 405.7652,-58 399.7652,-64 393.7652,-64"/>
<text text-anchor="middle" x="350.1704" y="-48.8" font-family="Helvetica,sans-Serif" font-size="14.00" fill="#000000">gini = 0.45</text>
<text text-anchor="middle" x="350.1704" y="-34.8" font-family="Helvetica,sans-Serif" font-size="14.00" fill="#000000">samples = 32</text>
<text text-anchor="middle" x="350.1704" y="-20.8" font-family="Helvetica,sans-Serif" font-size="14.00" fill="#000000">value = [11, 21]</text>
<text text-anchor="middle" x="350.1704" y="-6.8" font-family="Helvetica,sans-Serif" font-size="14.00" fill="#000000">class = e</text>
</g>
<!-- 8&#45;&gt;9 -->
<g id="edge9" class="edge">
<title>8&#45;&gt;9</title>
<path fill="none" stroke="#000000" d="M359.0368,-99.7647C357.9494,-91.4537 356.7971,-82.6472 355.6959,-74.2305"/>
<polygon fill="#000000" stroke="#000000" points="359.1536,-73.6783 354.3857,-64.2169 352.2127,-74.5865 359.1536,-73.6783"/>
</g>
<!-- 10 -->
<g id="node11" class="node">
<title>10</title>
<path fill="#399de5" stroke="#000000" d="M532.0835,-64C532.0835,-64 436.2573,-64 436.2573,-64 430.2573,-64 424.2573,-58 424.2573,-52 424.2573,-52 424.2573,-12 424.2573,-12 424.2573,-6 430.2573,0 436.2573,0 436.2573,0 532.0835,0 532.0835,0 538.0835,0 544.0835,-6 544.0835,-12 544.0835,-12 544.0835,-52 544.0835,-52 544.0835,-58 538.0835,-64 532.0835,-64"/>
<text text-anchor="middle" x="484.1704" y="-48.8" font-family="Helvetica,sans-Serif" font-size="14.00" fill="#000000">gini = 0.0</text>
<text text-anchor="middle" x="484.1704" y="-34.8" font-family="Helvetica,sans-Serif" font-size="14.00" fill="#000000">samples = 2138</text>
<text text-anchor="middle" x="484.1704" y="-20.8" font-family="Helvetica,sans-Serif" font-size="14.00" fill="#000000">value = [0, 2138]</text>
<text text-anchor="middle" x="484.1704" y="-6.8" font-family="Helvetica,sans-Serif" font-size="14.00" fill="#000000">class = e</text>
</g>
<!-- 8&#45;&gt;10 -->
<g id="edge10" class="edge">
<title>8&#45;&gt;10</title>
<path fill="none" stroke="#000000" d="M408.1726,-99.7647C418.7225,-90.3577 429.9842,-80.316 440.5182,-70.9232"/>
<polygon fill="#000000" stroke="#000000" points="442.9049,-73.4845 448.0393,-64.2169 438.2462,-68.2598 442.9049,-73.4845"/>
</g>
<!-- 13 -->
<g id="node14" class="node">
<title>13</title>
<path fill="#54abe9" stroke="#000000" d="M775.0835,-292C775.0835,-292 679.2573,-292 679.2573,-292 673.2573,-292 667.2573,-286 667.2573,-280 667.2573,-280 667.2573,-226 667.2573,-226 667.2573,-220 673.2573,-214 679.2573,-214 679.2573,-214 775.0835,-214 775.0835,-214 781.0835,-214 787.0835,-220 787.0835,-226 787.0835,-226 787.0835,-280 787.0835,-280 787.0835,-286 781.0835,-292 775.0835,-292"/>
<text text-anchor="middle" x="727.1704" y="-276.8" font-family="Helvetica,sans-Serif" font-size="14.00" fill="#000000">odor &lt;= 3.5</text>
<text text-anchor="middle" x="727.1704" y="-262.8" font-family="Helvetica,sans-Serif" font-size="14.00" fill="#000000">gini = 0.21</text>
<text text-anchor="middle" x="727.1704" y="-248.8" font-family="Helvetica,sans-Serif" font-size="14.00" fill="#000000">samples = 568</text>
<text text-anchor="middle" x="727.1704" y="-234.8" font-family="Helvetica,sans-Serif" font-size="14.00" fill="#000000">value = [69, 499]</text>
<text text-anchor="middle" x="727.1704" y="-220.8" font-family="Helvetica,sans-Serif" font-size="14.00" fill="#000000">class = e</text>
</g>
<!-- 12&#45;&gt;13 -->
<g id="edge13" class="edge">
<title>12&#45;&gt;13</title>
<path fill="none" stroke="#000000" d="M727.1704,-327.7677C727.1704,-319.6172 727.1704,-310.9283 727.1704,-302.4649"/>
<polygon fill="#000000" stroke="#000000" points="730.6705,-302.3046 727.1704,-292.3046 723.6705,-302.3047 730.6705,-302.3046"/>
</g>
<!-- 16 -->
<g id="node17" class="node">
<title>16</title>
<path fill="#e99355" stroke="#000000" d="M1012.6243,-292C1012.6243,-292 901.7165,-292 901.7165,-292 895.7165,-292 889.7165,-286 889.7165,-280 889.7165,-280 889.7165,-226 889.7165,-226 889.7165,-220 895.7165,-214 901.7165,-214 901.7165,-214 1012.6243,-214 1012.6243,-214 1018.6243,-214 1024.6243,-220 1024.6243,-226 1024.6243,-226 1024.6243,-280 1024.6243,-280 1024.6243,-286 1018.6243,-292 1012.6243,-292"/>
<text text-anchor="middle" x="957.1704" y="-276.8" font-family="Helvetica,sans-Serif" font-size="14.00" fill="#000000">gill&#45;size &lt;= 0.5</text>
<text text-anchor="middle" x="957.1704" y="-262.8" font-family="Helvetica,sans-Serif" font-size="14.00" fill="#000000">gini = 0.22</text>
<text text-anchor="middle" x="957.1704" y="-248.8" font-family="Helvetica,sans-Serif" font-size="14.00" fill="#000000">samples = 3269</text>
<text text-anchor="middle" x="957.1704" y="-234.8" font-family="Helvetica,sans-Serif" font-size="14.00" fill="#000000">value = [2858, 411]</text>
<text text-anchor="middle" x="957.1704" y="-220.8" font-family="Helvetica,sans-Serif" font-size="14.00" fill="#000000">class = p</text>
</g>
<!-- 12&#45;&gt;16 -->
<g id="edge16" class="edge">
<title>12&#45;&gt;16</title>
<path fill="none" stroke="#000000" d="M806.0016,-327.9272C830.2164,-315.925 856.8132,-302.7423 880.8564,-290.8252"/>
<polygon fill="#000000" stroke="#000000" points="882.5304,-293.9019 889.9359,-286.3249 879.4217,-287.63 882.5304,-293.9019"/>
</g>
<!-- 14 -->
<g id="node15" class="node">
<title>14</title>
<path fill="#399de5" stroke="#000000" d="M708.2974,-171C708.2974,-171 620.0434,-171 620.0434,-171 614.0434,-171 608.0434,-165 608.0434,-159 608.0434,-159 608.0434,-119 608.0434,-119 608.0434,-113 614.0434,-107 620.0434,-107 620.0434,-107 708.2974,-107 708.2974,-107 714.2974,-107 720.2974,-113 720.2974,-119 720.2974,-119 720.2974,-159 720.2974,-159 720.2974,-165 714.2974,-171 708.2974,-171"/>
<text text-anchor="middle" x="664.1704" y="-155.8" font-family="Helvetica,sans-Serif" font-size="14.00" fill="#000000">gini = 0.0</text>
<text text-anchor="middle" x="664.1704" y="-141.8" font-family="Helvetica,sans-Serif" font-size="14.00" fill="#000000">samples = 499</text>
<text text-anchor="middle" x="664.1704" y="-127.8" font-family="Helvetica,sans-Serif" font-size="14.00" fill="#000000">value = [0, 499]</text>
<text text-anchor="middle" x="664.1704" y="-113.8" font-family="Helvetica,sans-Serif" font-size="14.00" fill="#000000">class = e</text>
</g>
<!-- 13&#45;&gt;14 -->
<g id="edge14" class="edge">
<title>13&#45;&gt;14</title>
<path fill="none" stroke="#000000" d="M705.4894,-213.7677C699.4831,-202.8991 692.9475,-191.0729 686.8841,-180.1009"/>
<polygon fill="#000000" stroke="#000000" points="689.8241,-178.1847 681.9238,-171.1252 683.6974,-181.5705 689.8241,-178.1847"/>
</g>
<!-- 15 -->
<g id="node16" class="node">
<title>15</title>
<path fill="#e58139" stroke="#000000" d="M830.5118,-171C830.5118,-171 749.829,-171 749.829,-171 743.829,-171 737.829,-165 737.829,-159 737.829,-159 737.829,-119 737.829,-119 737.829,-113 743.829,-107 749.829,-107 749.829,-107 830.5118,-107 830.5118,-107 836.5118,-107 842.5118,-113 842.5118,-119 842.5118,-119 842.5118,-159 842.5118,-159 842.5118,-165 836.5118,-171 830.5118,-171"/>
<text text-anchor="middle" x="790.1704" y="-155.8" font-family="Helvetica,sans-Serif" font-size="14.00" fill="#000000">gini = 0.0</text>
<text text-anchor="middle" x="790.1704" y="-141.8" font-family="Helvetica,sans-Serif" font-size="14.00" fill="#000000">samples = 69</text>
<text text-anchor="middle" x="790.1704" y="-127.8" font-family="Helvetica,sans-Serif" font-size="14.00" fill="#000000">value = [69, 0]</text>
<text text-anchor="middle" x="790.1704" y="-113.8" font-family="Helvetica,sans-Serif" font-size="14.00" fill="#000000">class = p</text>
</g>
<!-- 13&#45;&gt;15 -->
<g id="edge15" class="edge">
<title>13&#45;&gt;15</title>
<path fill="none" stroke="#000000" d="M748.8514,-213.7677C754.8578,-202.8991 761.3933,-191.0729 767.4567,-180.1009"/>
<polygon fill="#000000" stroke="#000000" points="770.6434,-181.5705 772.417,-171.1252 764.5167,-178.1847 770.6434,-181.5705"/>
</g>
<!-- 17 -->
<g id="node18" class="node">
<title>17</title>
<path fill="#e6843e" stroke="#000000" d="M1042.3697,-178C1042.3697,-178 871.9711,-178 871.9711,-178 865.9711,-178 859.9711,-172 859.9711,-166 859.9711,-166 859.9711,-112 859.9711,-112 859.9711,-106 865.9711,-100 871.9711,-100 871.9711,-100 1042.3697,-100 1042.3697,-100 1048.3697,-100 1054.3697,-106 1054.3697,-112 1054.3697,-112 1054.3697,-166 1054.3697,-166 1054.3697,-172 1048.3697,-178 1042.3697,-178"/>
<text text-anchor="middle" x="957.1704" y="-162.8" font-family="Helvetica,sans-Serif" font-size="14.00" fill="#000000">stalk&#45;color&#45;above&#45;ring &lt;= 1.5</text>
<text text-anchor="middle" x="957.1704" y="-148.8" font-family="Helvetica,sans-Serif" font-size="14.00" fill="#000000">gini = 0.05</text>
<text text-anchor="middle" x="957.1704" y="-134.8" font-family="Helvetica,sans-Serif" font-size="14.00" fill="#000000">samples = 2754</text>
<text text-anchor="middle" x="957.1704" y="-120.8" font-family="Helvetica,sans-Serif" font-size="14.00" fill="#000000">value = [2690, 64]</text>
<text text-anchor="middle" x="957.1704" y="-106.8" font-family="Helvetica,sans-Serif" font-size="14.00" fill="#000000">class = p</text>
</g>
<!-- 16&#45;&gt;17 -->
<g id="edge17" class="edge">
<title>16&#45;&gt;17</title>
<path fill="none" stroke="#000000" d="M957.1704,-213.7677C957.1704,-205.6172 957.1704,-196.9283 957.1704,-188.4649"/>
<polygon fill="#000000" stroke="#000000" points="960.6705,-188.3046 957.1704,-178.3046 953.6705,-188.3047 960.6705,-188.3046"/>
</g>
<!-- 20 -->
<g id="node21" class="node">
<title>20</title>
<path fill="#99ccf2" stroke="#000000" d="M1191.8561,-178C1191.8561,-178 1084.4847,-178 1084.4847,-178 1078.4847,-178 1072.4847,-172 1072.4847,-166 1072.4847,-166 1072.4847,-112 1072.4847,-112 1072.4847,-106 1078.4847,-100 1084.4847,-100 1084.4847,-100 1191.8561,-100 1191.8561,-100 1197.8561,-100 1203.8561,-106 1203.8561,-112 1203.8561,-112 1203.8561,-166 1203.8561,-166 1203.8561,-172 1197.8561,-178 1191.8561,-178"/>
<text text-anchor="middle" x="1138.1704" y="-162.8" font-family="Helvetica,sans-Serif" font-size="14.00" fill="#000000">stalk&#45;shape &lt;= 0.5</text>
<text text-anchor="middle" x="1138.1704" y="-148.8" font-family="Helvetica,sans-Serif" font-size="14.00" fill="#000000">gini = 0.44</text>
<text text-anchor="middle" x="1138.1704" y="-134.8" font-family="Helvetica,sans-Serif" font-size="14.00" fill="#000000">samples = 515</text>
<text text-anchor="middle" x="1138.1704" y="-120.8" font-family="Helvetica,sans-Serif" font-size="14.00" fill="#000000">value = [168, 347]</text>
<text text-anchor="middle" x="1138.1704" y="-106.8" font-family="Helvetica,sans-Serif" font-size="14.00" fill="#000000">class = e</text>
</g>
<!-- 16&#45;&gt;20 -->
<g id="edge20" class="edge">
<title>16&#45;&gt;20</title>
<path fill="none" stroke="#000000" d="M1019.2071,-213.9272C1034.7493,-204.1381 1051.5385,-193.5637 1067.4673,-183.5312"/>
<polygon fill="#000000" stroke="#000000" points="1069.6185,-186.3127 1076.2148,-178.0218 1065.8879,-180.3897 1069.6185,-186.3127"/>
</g>
<!-- 18 -->
<g id="node19" class="node">
<title>18</title>
<path fill="#399de5" stroke="#000000" d="M873.5118,-64C873.5118,-64 792.829,-64 792.829,-64 786.829,-64 780.829,-58 780.829,-52 780.829,-52 780.829,-12 780.829,-12 780.829,-6 786.829,0 792.829,0 792.829,0 873.5118,0 873.5118,0 879.5118,0 885.5118,-6 885.5118,-12 885.5118,-12 885.5118,-52 885.5118,-52 885.5118,-58 879.5118,-64 873.5118,-64"/>
<text text-anchor="middle" x="833.1704" y="-48.8" font-family="Helvetica,sans-Serif" font-size="14.00" fill="#000000">gini = 0.0</text>
<text text-anchor="middle" x="833.1704" y="-34.8" font-family="Helvetica,sans-Serif" font-size="14.00" fill="#000000">samples = 27</text>
<text text-anchor="middle" x="833.1704" y="-20.8" font-family="Helvetica,sans-Serif" font-size="14.00" fill="#000000">value = [0, 27]</text>
<text text-anchor="middle" x="833.1704" y="-6.8" font-family="Helvetica,sans-Serif" font-size="14.00" fill="#000000">class = e</text>
</g>
<!-- 17&#45;&gt;18 -->
<g id="edge18" class="edge">
<title>17&#45;&gt;18</title>
<path fill="none" stroke="#000000" d="M911.7015,-99.7647C900.7999,-90.3577 889.1628,-80.316 878.2777,-70.9232"/>
<polygon fill="#000000" stroke="#000000" points="880.3634,-68.1001 870.5059,-64.2169 875.7903,-73.3998 880.3634,-68.1001"/>
</g>
<!-- 19 -->
<g id="node20" class="node">
<title>19</title>
<path fill="#e5833c" stroke="#000000" d="M1018.87,-64C1018.87,-64 915.4708,-64 915.4708,-64 909.4708,-64 903.4708,-58 903.4708,-52 903.4708,-52 903.4708,-12 903.4708,-12 903.4708,-6 909.4708,0 915.4708,0 915.4708,0 1018.87,0 1018.87,0 1024.87,0 1030.87,-6 1030.87,-12 1030.87,-12 1030.87,-52 1030.87,-52 1030.87,-58 1024.87,-64 1018.87,-64"/>
<text text-anchor="middle" x="967.1704" y="-48.8" font-family="Helvetica,sans-Serif" font-size="14.00" fill="#000000">gini = 0.03</text>
<text text-anchor="middle" x="967.1704" y="-34.8" font-family="Helvetica,sans-Serif" font-size="14.00" fill="#000000">samples = 2727</text>
<text text-anchor="middle" x="967.1704" y="-20.8" font-family="Helvetica,sans-Serif" font-size="14.00" fill="#000000">value = [2690, 37]</text>
<text text-anchor="middle" x="967.1704" y="-6.8" font-family="Helvetica,sans-Serif" font-size="14.00" fill="#000000">class = p</text>
</g>
<!-- 17&#45;&gt;19 -->
<g id="edge19" class="edge">
<title>17&#45;&gt;19</title>
<path fill="none" stroke="#000000" d="M960.8373,-99.7647C961.614,-91.4537 962.437,-82.6472 963.2236,-74.2305"/>
<polygon fill="#000000" stroke="#000000" points="966.7137,-74.4992 964.1595,-64.2169 959.7441,-73.8478 966.7137,-74.4992"/>
</g>
<!-- 21 -->
<g id="node22" class="node">
<title>21</title>
<path fill="#6db7ec" stroke="#000000" d="M1176.0835,-64C1176.0835,-64 1080.2573,-64 1080.2573,-64 1074.2573,-64 1068.2573,-58 1068.2573,-52 1068.2573,-52 1068.2573,-12 1068.2573,-12 1068.2573,-6 1074.2573,0 1080.2573,0 1080.2573,0 1176.0835,0 1176.0835,0 1182.0835,0 1188.0835,-6 1188.0835,-12 1188.0835,-12 1188.0835,-52 1188.0835,-52 1188.0835,-58 1182.0835,-64 1176.0835,-64"/>
<text text-anchor="middle" x="1128.1704" y="-48.8" font-family="Helvetica,sans-Serif" font-size="14.00" fill="#000000">gini = 0.33</text>
<text text-anchor="middle" x="1128.1704" y="-34.8" font-family="Helvetica,sans-Serif" font-size="14.00" fill="#000000">samples = 439</text>
<text text-anchor="middle" x="1128.1704" y="-20.8" font-family="Helvetica,sans-Serif" font-size="14.00" fill="#000000">value = [92, 347]</text>
<text text-anchor="middle" x="1128.1704" y="-6.8" font-family="Helvetica,sans-Serif" font-size="14.00" fill="#000000">class = e</text>
</g>
<!-- 20&#45;&gt;21 -->
<g id="edge21" class="edge">
<title>20&#45;&gt;21</title>
<path fill="none" stroke="#000000" d="M1134.5036,-99.7647C1133.7268,-91.4537 1132.9038,-82.6472 1132.1172,-74.2305"/>
<polygon fill="#000000" stroke="#000000" points="1135.5968,-73.8478 1131.1813,-64.2169 1128.6271,-74.4992 1135.5968,-73.8478"/>
</g>
<!-- 22 -->
<g id="node23" class="node">
<title>22</title>
<path fill="#e58139" stroke="#000000" d="M1298.5118,-64C1298.5118,-64 1217.829,-64 1217.829,-64 1211.829,-64 1205.829,-58 1205.829,-52 1205.829,-52 1205.829,-12 1205.829,-12 1205.829,-6 1211.829,0 1217.829,0 1217.829,0 1298.5118,0 1298.5118,0 1304.5118,0 1310.5118,-6 1310.5118,-12 1310.5118,-12 1310.5118,-52 1310.5118,-52 1310.5118,-58 1304.5118,-64 1298.5118,-64"/>
<text text-anchor="middle" x="1258.1704" y="-48.8" font-family="Helvetica,sans-Serif" font-size="14.00" fill="#000000">gini = 0.0</text>
<text text-anchor="middle" x="1258.1704" y="-34.8" font-family="Helvetica,sans-Serif" font-size="14.00" fill="#000000">samples = 76</text>
<text text-anchor="middle" x="1258.1704" y="-20.8" font-family="Helvetica,sans-Serif" font-size="14.00" fill="#000000">value = [76, 0]</text>
<text text-anchor="middle" x="1258.1704" y="-6.8" font-family="Helvetica,sans-Serif" font-size="14.00" fill="#000000">class = p</text>
</g>
<!-- 20&#45;&gt;22 -->
<g id="edge22" class="edge">
<title>20&#45;&gt;22</title>
<path fill="none" stroke="#000000" d="M1182.1726,-99.7647C1192.7225,-90.3577 1203.9842,-80.316 1214.5182,-70.9232"/>
<polygon fill="#000000" stroke="#000000" points="1216.9049,-73.4845 1222.0393,-64.2169 1212.2462,-68.2598 1216.9049,-73.4845"/>
</g>
</g>
</svg>
